
<svg xmlns="http://www.w3.org/2000/svg" height="42" width="118" alt="logo carbon">

<g>
	<g>
		<g>
			<g>
				<path d="M246.1,239.7c-8.1,0-13.3-6.3-13.3-14.2s5.2-14.3,13.3-14.3c5.9,0,10.1,3.5,11.3,8.5h14.5
					c-1.7-12.4-12.5-21.3-25.8-21.3c-15.5,0-27.5,11.8-27.5,27.2s12.1,27.1,27.5,27.1c13.3,0,24.1-8.7,25.8-21.2h-14.5
					C256.3,236.2,252,239.7,246.1,239.7z"/>
				<path d="M315.8,199.6v3c-4-2.6-9.1-4.2-14.9-4.2c-14.3,0-25.8,12.1-25.8,27.2c0,14.9,11.5,27.1,25.8,27.1
					c5.8,0,10.8-1.6,14.9-4.2v3h14.2v-51.8H315.8z M303.1,239.7c-8.1,0-13.8-6.5-13.8-14.2c0-7.8,5.6-14.3,13.8-14.3
					c4.6,0,9.3,1.3,12.7,6.1v16.3C312.4,238.3,307.7,239.7,303.1,239.7z"/>
				<path d="M352.4,205.6v-5.9h-14.2v51.6h14.2V220c4.5-5,10.3-7.3,18.3-7.8v-13.5C363,198.7,357.1,201.1,352.4,205.6z"/>
				<path d="M404.3,198.2c-5.8,0-10.8,1.6-14.9,4.2v-28.1h-14.2v76.9h14.2v-3c4,2.6,9.1,4.2,14.9,4.2c14.3,0,25.8-12.1,25.8-27.2
					C430.1,210.4,418.6,198.2,404.3,198.2z M402.2,239.7c-4.6,0-9.3-1.3-12.7-6.1v-16.3c3.3-4.7,8-6.1,12.7-6.1
					c8.1,0,13.8,6.5,13.8,14.2C415.9,233.1,410.3,239.7,402.2,239.7z"/>
				<path d="M460.9,198.2c-15.8,0-27.5,11.5-27.5,27.2c0,15.8,11.7,27.1,27.5,27.1c15.7,0,27.3-11.3,27.3-27.1
					C488.3,209.8,476.6,198.2,460.9,198.2z M460.9,239.7c-8.1,0-13.3-6.1-13.3-14.2c0-7.9,5.2-14.3,13.3-14.3
					c8,0,13.2,6.4,13.2,14.3C474.1,233.6,468.9,239.7,460.9,239.7z"/>
				<path d="M522.1,198.2c-5.9,0-10.7,1.8-14.9,5.2v-3.9H493v51.6h14.2v-33.5c3.7-4.4,8-6.6,11.9-6.6c7.5,0,11.7,4.5,11.7,12.9v27.2
					h14.2v-28C544.9,208,535.8,198.2,522.1,198.2z"/>
				<path class="st0" d="M124.8,188.4c9,0,16.3-7.3,16.3-16.4c0-9.1-7.3-16.4-16.3-16.4s-16.3,7.3-16.3,16.4
					C108.5,181,115.8,188.4,124.8,188.4z"/>
				<path class="st1" d="M124.8,241.8c9,0,16.3-7.3,16.3-16.4c0-9.1-7.3-16.4-16.3-16.4s-16.3,7.3-16.3,16.4
					C108.5,234.5,115.8,241.8,124.8,241.8z"/>
				<path class="st0" d="M124.8,295.2c9,0,16.3-7.3,16.3-16.4c0-9.1-7.3-16.4-16.3-16.4s-16.3,7.3-16.3,16.4
					C108.5,287.9,115.8,295.2,124.8,295.2z"/>
				<path class="st0" d="M161.3,225.4c0,9,7.3,16.3,16.4,16.3s16.5-7.3,16.5-16.3c0-9-7.4-16.3-16.5-16.3S161.3,216.3,161.3,225.4z"
					/>
				<path class="st0" d="M55.3,225.4c0,9,7.3,16.3,16.4,16.3s16.5-7.3,16.5-16.3c0-9-7.3-16.3-16.4-16.3S55.3,216.3,55.3,225.4z"/>
				<path class="st2" d="M77.9,188.4c5.6,0,10.2-4.6,10.2-10.3s-4.5-10.3-10.2-10.3c-5.6,0-10.2,4.6-10.2,10.3
					C67.7,183.7,72.3,188.4,77.9,188.4z"/>
				<path class="st3" d="M98.3,208.9c5.6,0,10.2-4.6,10.2-10.3s-4.5-10.3-10.2-10.3c-5.6,0-10.2,4.6-10.2,10.3
					C88.1,204.4,92.6,208.9,98.3,208.9z"/>
				<path class="st2" d="M171.6,282.9c5.6,0,10.2-4.6,10.2-10.3c0-5.7-4.5-10.3-10.2-10.3c-5.6,0-10.2,4.6-10.2,10.3
					C161.4,278.3,166,282.9,171.6,282.9z"/>
				<path class="st3" d="M151.3,262.4c5.6,0,10.2-4.6,10.2-10.3s-4.5-10.3-10.2-10.3c-5.6,0-10.2,4.6-10.2,10.3
					C141.1,257.7,145.7,262.4,151.3,262.4z"/>
				<path class="st2" d="M171.6,188.4c-5.6,0-10.2-4.6-10.2-10.3s4.5-10.3,10.2-10.3c5.6,0,10.2,4.6,10.2,10.3
					S177.3,188.4,171.6,188.4z"/>
				<path class="st3" d="M151.3,208.9c-5.6,0-10.2-4.6-10.2-10.3s4.5-10.3,10.2-10.3c5.6,0,10.2,4.6,10.2,10.3
					C161.5,204.4,156.9,208.9,151.3,208.9z"/>
				<path class="st2" d="M77.9,282.9c-5.6,0-10.2-4.6-10.2-10.3c0-5.7,4.5-10.3,10.2-10.3c5.6,0,10.2,4.6,10.2,10.3
					C88.1,278.3,83.6,282.9,77.9,282.9z"/>
				<path class="st3" d="M98.3,262.4c-5.6,0-10.2-4.6-10.2-10.3s4.5-10.3,10.2-10.3c5.7,0,10.2,4.6,10.2,10.3
					C108.5,257.7,103.9,262.4,98.3,262.4z"/>
			</g>
		</g>
	</g>
</g>
</svg>
